<svg width="1920" height="1334" viewBox="0 0 1920 1334" fill="none" xmlns="http://www.w3.org/2000/svg">
<g filter="url(#filter0_i_7_311)">
<path d="M1920 28.2481L1915.19 28.6918L1910.38 29.1354L1905.56 29.5788L1900.75 30.0218L1895.94 30.4644L1891.13 30.9065L1886.32 31.3479L1881.5 31.7885L1876.69 32.2283L1871.88 32.6671L1867.07 33.1048L1862.26 33.5413L1857.44 33.9764L1852.63 34.4103L1847.82 34.8425L1843.01 35.2732L1838.2 35.702L1833.38 36.1291L1828.57 36.5542L1823.76 36.9772L1818.95 37.3982L1814.14 37.8168L1809.32 38.2331L1804.51 38.6469L1799.7 39.0582L1794.89 39.4668L1790.08 39.8726L1785.26 40.2756L1780.45 40.6756L1775.64 41.0725L1770.83 41.4662L1766.02 41.8568L1761.2 42.2439L1756.39 42.6276L1751.58 43.0077L1746.77 43.3842L1741.95 43.7569L1737.14 44.1259L1732.33 44.4909L1727.52 44.8519L1722.71 45.2088L1717.89 45.5616L1713.08 45.91L1708.27 46.2541L1703.46 46.5938L1698.65 46.9289L1693.83 47.2594L1689.02 47.5853L1684.21 47.9063L1679.4 48.2225L1674.59 48.5338L1669.77 48.8401L1664.96 49.1413L1660.15 49.4373L1655.34 49.7281L1650.53 50.0137L1645.71 50.2938L1640.9 50.5685L1636.09 50.8377L1631.28 51.1013L1626.47 51.3593L1621.65 51.6116L1616.84 51.8581L1612.03 52.0987L1607.22 52.3336L1602.41 52.5625L1597.59 52.7853L1592.78 53.0021L1587.97 53.2128L1583.16 53.4173L1578.35 53.6157L1573.53 53.8078L1568.72 53.9935L1563.91 54.1729L1559.1 54.3459L1554.29 54.5125L1549.47 54.6726L1544.66 54.8262L1539.85 54.9732L1535.04 55.1136L1530.23 55.2475L1525.41 55.3746L1520.6 55.495L1515.79 55.6088L1510.98 55.7157L1506.17 55.8159L1501.35 55.9093L1496.54 55.9959L1491.73 56.0756L1486.92 56.1484L1482.11 56.2144L1477.29 56.2734L1472.48 56.3256L1467.67 56.3708L1462.86 56.4091L1458.05 56.4404L1453.23 56.4649L1448.42 56.4823L1443.61 56.4927L1438.8 56.4962L1433.98 56.4927L1429.17 56.4823L1424.36 56.4649L1419.55 56.4404L1414.74 56.4091L1409.92 56.3708L1405.11 56.3256L1400.3 56.2734L1395.49 56.2144L1390.68 56.1484L1385.86 56.0756L1381.05 55.9959L1376.24 55.9093L1371.43 55.8159L1366.62 55.7157L1361.8 55.6088L1356.99 55.495L1352.18 55.3746L1347.37 55.2475L1342.56 55.1136L1337.74 54.9732L1332.93 54.8262L1328.12 54.6726L1323.31 54.5125L1318.5 54.3459L1313.68 54.1729L1308.87 53.9935L1304.06 53.8078L1299.25 53.6157L1294.44 53.4173L1289.62 53.2128L1284.81 53.0021L1280 52.7853L1275.19 52.5625L1270.38 52.3336L1265.56 52.0987L1260.75 51.8581L1255.94 51.6116L1251.13 51.3593L1246.32 51.1013L1241.5 50.8377L1236.69 50.5685L1231.88 50.2938L1227.07 50.0137L1222.26 49.7281L1217.44 49.4373L1212.63 49.1413L1207.82 48.8401L1203.01 48.5338L1198.2 48.2225L1193.38 47.9063L1188.57 47.5853L1183.76 47.2594L1178.95 46.9289L1174.14 46.5938L1169.32 46.2541L1164.51 45.91L1159.7 45.5616L1154.89 45.2088L1150.08 44.8519L1145.26 44.4909L1140.45 44.1259L1135.64 43.7569L1130.83 43.3842L1126.01 43.0077L1121.2 42.6276L1116.39 42.2439L1111.58 41.8568L1106.77 41.4662L1101.95 41.0725L1097.14 40.6756L1092.33 40.2756L1087.52 39.8726L1082.71 39.4668L1077.89 39.0582L1073.08 38.6469L1068.27 38.2331L1063.46 37.8168L1058.65 37.3982L1053.83 36.9772L1049.02 36.5542L1044.21 36.1291L1039.4 35.702L1034.59 35.2732L1029.77 34.8425L1024.96 34.4103L1020.15 33.9764L1015.34 33.5413L1010.53 33.1048L1005.71 32.6671L1000.9 32.2283L996.09 31.7885L991.278 31.3479L986.466 30.9065L981.654 30.4644L976.842 30.0218L972.03 29.5788L967.218 29.1354L962.406 28.6918L957.594 28.2481L952.782 27.8044L947.97 27.3608L943.158 26.9174L938.346 26.4744L933.534 26.0318L928.722 25.5897L923.91 25.1483L919.098 24.7077L914.286 24.2679L909.474 23.8291L904.662 23.3914L899.85 22.9549L895.037 22.5198L890.225 22.086L885.413 21.6537L880.601 21.2231L875.789 20.7942L870.977 20.3671L866.165 19.942L861.353 19.519L856.541 19.098L851.729 18.6794L846.917 18.2631L842.105 17.8493L837.293 17.438L832.481 17.0295L827.669 16.6236L822.857 16.2207L818.045 15.8207L813.233 15.4238L808.421 15.03L803.609 14.6395L798.797 14.2524L793.985 13.8687L789.173 13.4885L784.361 13.1121L779.549 12.7393L774.737 12.3703L769.925 12.0053L765.113 11.6443L760.301 11.2874L755.489 10.9347L750.677 10.5862L745.865 10.2421L741.053 9.90245L736.24 9.56731L731.428 9.23681L726.616 8.91095L721.804 8.58991L716.992 8.27368L712.18 7.96239L707.368 7.65615L702.556 7.35496L697.744 7.05888L692.932 6.7681L688.12 6.48255L683.308 6.20241L678.496 5.92774L673.684 5.65854L668.872 5.39492L664.06 5.13696L659.248 4.88464L654.436 4.63815L649.624 4.39749L644.812 4.16265L640 3.93376L635.188 3.71093L630.376 3.4941L625.564 3.2834L620.752 3.07889L615.94 2.88055L611.128 2.68846L606.316 2.50273L601.504 2.3233L596.692 2.15029L591.88 1.98371L587.068 1.8236L582.256 1.67004L577.444 1.52301L572.631 1.38258L567.819 1.24875L563.007 1.12164L558.195 1.00119L553.383 0.88746L548.571 0.780505L543.759 0.680327L538.947 0.586927L534.135 0.500364L529.323 0.420638L524.511 0.347809L519.699 0.281816L514.887 0.22278L510.075 0.17058L505.263 0.125396L500.451 0.0871088L495.639 0.0557772L490.827 0.0313422L486.015 0.0139225L481.203 0.00351832L476.391 1.06096e-05L471.579 0.00351832L466.767 0.0139225L461.955 0.0313422L457.143 0.0557772L452.331 0.0871088L447.519 0.125396L442.707 0.17058L437.895 0.22278L433.083 0.281816L428.271 0.347809L423.459 0.420638L418.647 0.500364L413.835 0.586927L409.022 0.680327L404.21 0.780505L399.398 0.88746L394.586 1.00119L389.774 1.12164L384.962 1.24875L380.15 1.38258L375.338 1.52301L370.526 1.67004L365.714 1.8236L360.902 1.98371L356.09 2.15029L351.278 2.3233L346.466 2.50273L341.654 2.68846L336.842 2.88055L332.03 3.07889L327.218 3.2834L322.406 3.4941L317.594 3.71093L312.782 3.93376L307.97 4.16265L303.158 4.39749L298.346 4.63815L293.534 4.88464L288.722 5.13696L283.91 5.39492L279.098 5.65854L274.286 5.92774L269.474 6.20241L264.662 6.48255L259.85 6.7681L255.038 7.05888L250.225 7.35496L245.413 7.65615L240.601 7.96239L235.789 8.27368L230.977 8.58991L226.165 8.91095L221.353 9.23681L216.541 9.56731L211.729 9.90245L206.917 10.2421L202.105 10.5862L197.293 10.9347L192.481 11.2874L187.669 11.6443L182.857 12.0053L178.045 12.3703L173.233 12.7393L168.421 13.1121L163.609 13.4885L158.797 13.8687L153.985 14.2524L149.173 14.6395L144.361 15.03L139.549 15.4238L134.737 15.8207L129.925 16.2207L125.113 16.6236L120.301 17.0295L115.489 17.438L110.677 17.8493L105.865 18.2631L101.053 18.6794L96.2405 19.098L91.4285 19.519L86.6164 19.942L81.8043 20.3671L76.9923 20.7942L72.1803 21.2231L67.3683 21.6537L62.5563 22.086L57.7443 22.5198L52.9322 22.9549L48.1201 23.3914L43.3081 23.8291L38.4961 24.2679L33.6841 24.7077L28.8721 25.1483L24.0601 25.5897L19.2479 26.0318L14.4359 26.4744L9.62392 26.9174L4.81191 27.3608L-0.000106812 27.8044V827.962H1920V28.2481Z" fill="#F2F2F4"/>
<path d="M0 1304.52L4.81203 1304.06L9.62406 1303.59L14.4361 1303.13L19.2481 1302.67L24.0602 1302.21L28.8722 1301.75L33.6842 1301.28L38.4962 1300.82L43.3083 1300.37L48.1203 1299.91L52.9323 1299.45L57.7444 1299L62.5564 1298.54L67.3684 1298.09L72.1805 1297.64L76.9925 1297.19L81.8045 1296.74L86.6165 1296.3L91.4286 1295.85L96.2406 1295.41L101.053 1294.97L105.865 1294.53L110.677 1294.1L115.489 1293.67L120.301 1293.24L125.113 1292.81L129.925 1292.39L134.737 1291.97L139.549 1291.55L144.361 1291.14L149.173 1290.73L153.985 1290.32L158.797 1289.91L163.609 1289.51L168.421 1289.12L173.233 1288.72L178.045 1288.33L182.857 1287.95L187.669 1287.57L192.481 1287.19L197.293 1286.82L202.105 1286.45L206.917 1286.09L211.729 1285.73L216.541 1285.37L221.353 1285.02L226.165 1284.68L230.977 1284.34L235.789 1284L240.602 1283.67L245.414 1283.35L250.226 1283.03L255.038 1282.72L259.85 1282.41L264.662 1282.1L269.474 1281.8L274.286 1281.51L279.098 1281.23L283.91 1280.94L288.722 1280.67L293.534 1280.4L298.346 1280.14L303.158 1279.88L307.97 1279.63L312.782 1279.38L317.594 1279.14L322.406 1278.91L327.218 1278.69L332.03 1278.47L336.842 1278.25L341.654 1278.05L346.466 1277.85L351.278 1277.65L356.09 1277.46L360.902 1277.28L365.714 1277.11L370.526 1276.94L375.338 1276.78L380.15 1276.63L384.962 1276.48L389.774 1276.34L394.587 1276.21L399.399 1276.08L404.211 1275.97L409.023 1275.85L413.835 1275.75L418.647 1275.65L423.459 1275.56L428.271 1275.48L433.083 1275.4L437.895 1275.33L442.707 1275.27L447.519 1275.22L452.331 1275.17L457.143 1275.13L461.955 1275.1L466.767 1275.07L471.579 1275.05L476.391 1275.04L481.203 1275.04L486.015 1275.04L490.827 1275.05L495.639 1275.07L500.451 1275.1L505.263 1275.13L510.075 1275.17L514.887 1275.22L519.699 1275.27L524.511 1275.33L529.323 1275.4L534.135 1275.48L538.947 1275.56L543.759 1275.65L548.571 1275.75L553.383 1275.85L558.196 1275.97L563.008 1276.08L567.82 1276.21L572.632 1276.34L577.444 1276.48L582.256 1276.63L587.068 1276.78L591.88 1276.94L596.692 1277.11L601.504 1277.28L606.316 1277.46L611.128 1277.65L615.94 1277.85L620.752 1278.05L625.564 1278.25L630.376 1278.47L635.188 1278.69L640 1278.91L644.812 1279.14L649.624 1279.38L654.436 1279.63L659.248 1279.88L664.06 1280.14L668.872 1280.4L673.684 1280.67L678.496 1280.94L683.308 1281.23L688.12 1281.51L692.932 1281.8L697.744 1282.1L702.556 1282.41L707.368 1282.72L712.181 1283.03L716.993 1283.35L721.805 1283.67L726.617 1284L731.429 1284.34L736.241 1284.68L741.053 1285.02L745.865 1285.37L750.677 1285.73L755.489 1286.09L760.301 1286.45L765.113 1286.82L769.925 1287.19L774.737 1287.57L779.549 1287.95L784.361 1288.33L789.173 1288.72L793.985 1289.12L798.797 1289.51L803.609 1289.91L808.421 1290.32L813.233 1290.73L818.045 1291.14L822.857 1291.55L827.669 1291.97L832.481 1292.39L837.293 1292.81L842.105 1293.24L846.917 1293.67L851.729 1294.1L856.541 1294.53L861.353 1294.97L866.165 1295.41L870.978 1295.85L875.79 1296.3L880.602 1296.74L885.414 1297.19L890.226 1297.64L895.038 1298.09L899.85 1298.54L904.662 1299L909.474 1299.45L914.286 1299.91L919.098 1300.37L923.91 1300.82L928.722 1301.28L933.534 1301.75L938.346 1302.21L943.158 1302.67L947.97 1303.13L952.782 1303.59L957.594 1304.06L962.406 1304.52L967.218 1304.98L972.03 1305.45L976.842 1305.91L981.654 1306.37L986.466 1306.83L991.278 1307.29L996.09 1307.75L1000.9 1308.21L1005.71 1308.67L1010.53 1309.13L1015.34 1309.59L1020.15 1310.04L1024.96 1310.5L1029.77 1310.95L1034.59 1311.4L1039.4 1311.85L1044.21 1312.3L1049.02 1312.74L1053.83 1313.19L1058.65 1313.63L1063.46 1314.07L1068.27 1314.51L1073.08 1314.94L1077.89 1315.37L1082.71 1315.8L1087.52 1316.23L1092.33 1316.65L1097.14 1317.07L1101.95 1317.49L1106.77 1317.9L1111.58 1318.31L1116.39 1318.72L1121.2 1319.13L1126.02 1319.53L1130.83 1319.92L1135.64 1320.32L1140.45 1320.71L1145.26 1321.09L1150.08 1321.47L1154.89 1321.85L1159.7 1322.22L1164.51 1322.59L1169.32 1322.95L1174.14 1323.31L1178.95 1323.67L1183.76 1324.02L1188.57 1324.36L1193.38 1324.7L1198.2 1325.04L1203.01 1325.37L1207.82 1325.69L1212.63 1326.01L1217.44 1326.32L1222.26 1326.63L1227.07 1326.94L1231.88 1327.23L1236.69 1327.53L1241.5 1327.81L1246.32 1328.09L1251.13 1328.37L1255.94 1328.64L1260.75 1328.9L1265.56 1329.16L1270.38 1329.41L1275.19 1329.66L1280 1329.89L1284.81 1330.13L1289.62 1330.35L1294.44 1330.57L1299.25 1330.79L1304.06 1330.99L1308.87 1331.19L1313.68 1331.39L1318.5 1331.58L1323.31 1331.76L1328.12 1331.93L1332.93 1332.1L1337.74 1332.26L1342.56 1332.41L1347.37 1332.56L1352.18 1332.7L1356.99 1332.83L1361.8 1332.96L1366.62 1333.07L1371.43 1333.19L1376.24 1333.29L1381.05 1333.39L1385.86 1333.48L1390.68 1333.56L1395.49 1333.64L1400.3 1333.71L1405.11 1333.77L1409.92 1333.82L1414.74 1333.87L1419.55 1333.91L1424.36 1333.94L1429.17 1333.97L1433.99 1333.99L1438.8 1334L1443.61 1334L1448.42 1334L1453.23 1333.99L1458.05 1333.97L1462.86 1333.94L1467.67 1333.91L1472.48 1333.87L1477.29 1333.82L1482.11 1333.77L1486.92 1333.71L1491.73 1333.64L1496.54 1333.56L1501.35 1333.48L1506.17 1333.39L1510.98 1333.29L1515.79 1333.19L1520.6 1333.07L1525.41 1332.96L1530.23 1332.83L1535.04 1332.7L1539.85 1332.56L1544.66 1332.41L1549.47 1332.26L1554.29 1332.1L1559.1 1331.93L1563.91 1331.76L1568.72 1331.58L1573.53 1331.39L1578.35 1331.19L1583.16 1330.99L1587.97 1330.79L1592.78 1330.57L1597.59 1330.35L1602.41 1330.13L1607.22 1329.89L1612.03 1329.66L1616.84 1329.41L1621.65 1329.16L1626.47 1328.9L1631.28 1328.64L1636.09 1328.37L1640.9 1328.09L1645.71 1327.81L1650.53 1327.53L1655.34 1327.23L1660.15 1326.94L1664.96 1326.63L1669.77 1326.32L1674.59 1326.01L1679.4 1325.69L1684.21 1325.37L1689.02 1325.04L1693.83 1324.7L1698.65 1324.36L1703.46 1324.02L1708.27 1323.67L1713.08 1323.31L1717.89 1322.95L1722.71 1322.59L1727.52 1322.22L1732.33 1321.85L1737.14 1321.47L1741.96 1321.09L1746.77 1320.71L1751.58 1320.32L1756.39 1319.92L1761.2 1319.53L1766.02 1319.13L1770.83 1318.72L1775.64 1318.31L1780.45 1317.9L1785.26 1317.49L1790.08 1317.07L1794.89 1316.65L1799.7 1316.23L1804.51 1315.8L1809.32 1315.37L1814.14 1314.94L1818.95 1314.51L1823.76 1314.07L1828.57 1313.63L1833.38 1313.19L1838.2 1312.74L1843.01 1312.3L1847.82 1311.85L1852.63 1311.4L1857.44 1310.95L1862.26 1310.5L1867.07 1310.04L1871.88 1309.59L1876.69 1309.13L1881.5 1308.67L1886.32 1308.21L1891.13 1307.75L1895.94 1307.29L1900.75 1306.83L1905.56 1306.37L1910.38 1305.91L1915.19 1305.45L1920 1304.98V237.132L0 229V1304.52Z" fill="#F2F2F4"/>
</g>
<defs>
<filter id="filter0_i_7_311" x="0" y="0" width="1920" height="1338" filterUnits="userSpaceOnUse" color-interpolation-filters="sRGB">
<feFlood flood-opacity="0" result="BackgroundImageFix"/>
<feBlend mode="normal" in="SourceGraphic" in2="BackgroundImageFix" result="shape"/>
<feColorMatrix in="SourceAlpha" type="matrix" values="0 0 0 0 0 0 0 0 0 0 0 0 0 0 0 0 0 0 127 0" result="hardAlpha"/>
<feOffset dy="4"/>
<feGaussianBlur stdDeviation="10"/>
<feComposite in2="hardAlpha" operator="arithmetic" k2="-1" k3="1"/>
<feColorMatrix type="matrix" values="0 0 0 0 0 0 0 0 0 0 0 0 0 0 0 0 0 0 0.1 0"/>
<feBlend mode="normal" in2="shape" result="effect1_innerShadow_7_311"/>
</filter>
</defs>
</svg>
