<svg width="1920" height="1098" viewBox="0 0 1920 1098" fill="none" xmlns="http://www.w3.org/2000/svg">
<path d="M1920 29L1689.02 48.8519L1684.21 49.1815L1679.4 49.5061L1674.59 49.8257L1669.77 50.1401L1664.96 50.4493L1660.15 50.7532L1655.34 51.0518L1650.53 51.3449L1645.71 51.6325L1640.9 51.9145L1636.09 52.1909L1631.28 52.4615L1626.47 52.7263L1621.65 52.9854L1616.84 53.2384L1612.03 53.4855L1607.22 53.7266L1602.41 53.9615L1597.59 54.1903L1592.78 54.4129L1587.97 54.6292L1583.16 54.8392L1578.35 55.0428L1573.53 55.24L1568.72 55.4307L1563.91 55.6149L1559.1 55.7925L1554.29 55.9635L1549.47 56.1279L1544.66 56.2855L1539.85 56.4365L1535.04 56.5806L1530.23 56.718L1525.41 56.8485L1520.6 56.9722L1515.79 57.0889L1510.98 57.1987L1506.17 57.3016L1501.35 57.3975L1496.54 57.4863L1491.73 57.5682L1486.92 57.6429L1482.11 57.7107L1477.29 57.7713L1472.48 57.8249L1467.67 57.8713L1462.86 57.9106L1458.05 57.9427L1453.23 57.9678L1448.42 57.9857L1443.61 57.9964L1438.8 58L1433.98 57.9964L1429.17 57.9857L1424.36 57.9678L1419.55 57.9427L1414.74 57.9106L1409.92 57.8713L1405.11 57.8249L1400.3 57.7713L1395.49 57.7107L1390.68 57.6429L1385.86 57.5682L1381.05 57.4863L1376.24 57.3975L1371.43 57.3016L1366.62 57.1987L1361.8 57.0889L1356.99 56.9722L1352.18 56.8485L1347.37 56.718L1342.56 56.5806L1337.74 56.4365L1332.93 56.2855L1328.12 56.1279L1323.31 55.9635L1318.5 55.7925L1313.68 55.6149L1308.87 55.4307L1304.06 55.24L1299.25 55.0428L1294.44 54.8392L1289.62 54.6292L1284.81 54.4129L1280 54.1903L1275.19 53.9615L1270.38 53.7266L1265.56 53.4855L1260.75 53.2384L1255.94 52.9854L1251.13 52.7263L1246.32 52.4615L1241.5 52.1909L1236.69 51.9145L1231.88 51.6325L1227.07 51.3449L1222.26 51.0518L1217.44 50.7532L1212.63 50.4493L1207.82 50.1401L1203.01 49.8257L1198.2 49.5061L1193.38 49.1815L1188.57 48.8519L726.617 9.14813L721.805 8.81854L716.993 8.4939L712.181 8.17432L707.369 7.85992L702.556 7.55072L697.744 7.24677L692.932 6.94824L688.12 6.65509L683.308 6.36749L678.496 6.08551L673.684 5.80914L668.872 5.53851L664.06 5.27368L659.248 5.01465L654.436 4.7616L649.624 4.51453L644.812 4.27344L640 4.03845L635.188 3.80969L630.376 3.5871L625.564 3.37079L620.752 3.16083L615.94 2.95721L611.128 2.76001L606.316 2.56934L601.504 2.38513L596.692 2.20752L591.88 2.0365L587.068 1.87213L582.256 1.71448L577.444 1.56354L572.632 1.41937L567.82 1.28198L563.008 1.15149L558.196 1.02783L553.384 0.911072L548.572 0.80127L543.76 0.698425L538.947 0.602539L534.135 0.513672L529.323 0.431824L524.511 0.357056L519.699 0.289307L514.887 0.228699L510.075 0.17511L505.263 0.128723L500.451 0.0894165L495.639 0.057251L490.827 0.0321655L486.015 0.0142822L481.203 0.00360107L476.391 0L471.579 0.00360107L466.767 0.0142822L461.955 0.0321655L457.143 0.057251L452.331 0.0894165L447.519 0.128723L442.707 0.17511L437.895 0.228699L433.083 0.289307L428.271 0.357056L423.459 0.431824L418.647 0.513672L413.835 0.602539L409.023 0.698425L404.211 0.80127L399.399 0.911072L394.587 1.02783L389.775 1.15149L384.963 1.28198L380.15 1.41937L375.338 1.56354L370.526 1.71448L365.714 1.87213L360.902 2.0365L356.09 2.20752L351.278 2.38513L346.466 2.56934L341.654 2.76001L336.842 2.95721L332.03 3.16083L327.218 3.37079L322.406 3.5871L317.594 3.80969L312.782 4.03845L307.97 4.27344L303.158 4.51453L298.346 4.7616L293.534 5.01465L288.722 5.27368L283.91 5.53851L279.098 5.80914L274.286 6.08551L269.474 6.36749L264.662 6.65509L259.85 6.94824L255.038 7.24677L250.226 7.55072L245.414 7.85992L240.602 8.17432L235.79 8.4939L230.978 8.81854L226.166 9.14813L0.00012207 28.5445V850H1920V29Z" fill="#F2F2F4"/>
<path d="M0 1069L230.977 1049.15L235.789 1048.82L240.601 1048.49L245.414 1048.17L250.226 1047.86L255.038 1047.55L259.85 1047.25L264.662 1046.95L269.474 1046.66L274.286 1046.37L279.098 1046.09L283.91 1045.81L288.722 1045.54L293.534 1045.27L298.346 1045.01L303.158 1044.76L307.97 1044.51L312.782 1044.27L317.594 1044.04L322.406 1043.81L327.218 1043.59L332.03 1043.37L336.842 1043.16L341.654 1042.96L346.466 1042.76L351.278 1042.57L356.09 1042.39L360.902 1042.21L365.714 1042.04L370.526 1041.87L375.338 1041.71L380.15 1041.56L384.962 1041.42L389.774 1041.28L394.586 1041.15L399.398 1041.03L404.211 1040.91L409.023 1040.8L413.835 1040.7L418.647 1040.6L423.459 1040.51L428.271 1040.43L433.083 1040.36L437.895 1040.29L442.707 1040.23L447.519 1040.18L452.331 1040.13L457.143 1040.09L461.955 1040.06L466.767 1040.03L471.579 1040.01L476.391 1040L481.203 1040L486.015 1040L490.827 1040.01L495.639 1040.03L500.451 1040.06L505.263 1040.09L510.075 1040.13L514.887 1040.18L519.699 1040.23L524.511 1040.29L529.323 1040.36L534.135 1040.43L538.947 1040.51L543.759 1040.6L548.571 1040.7L553.383 1040.8L558.195 1040.91L563.008 1041.03L567.82 1041.15L572.632 1041.28L577.444 1041.42L582.256 1041.56L587.068 1041.71L591.88 1041.87L596.692 1042.04L601.504 1042.21L606.316 1042.39L611.128 1042.57L615.94 1042.76L620.752 1042.96L625.564 1043.16L630.376 1043.37L635.188 1043.59L640 1043.81L644.812 1044.04L649.624 1044.27L654.436 1044.51L659.248 1044.76L664.06 1045.01L668.872 1045.27L673.684 1045.54L678.496 1045.81L683.308 1046.09L688.12 1046.37L692.932 1046.66L697.744 1046.95L702.556 1047.25L707.368 1047.55L712.18 1047.86L716.992 1048.17L721.805 1048.49L726.617 1048.82L731.429 1049.15L1193.38 1088.85L1198.2 1089.18L1203.01 1089.51L1207.82 1089.83L1212.63 1090.14L1217.44 1090.45L1222.26 1090.75L1227.07 1091.05L1231.88 1091.34L1236.69 1091.63L1241.5 1091.91L1246.32 1092.19L1251.13 1092.46L1255.94 1092.73L1260.75 1092.99L1265.56 1093.24L1270.38 1093.49L1275.19 1093.73L1280 1093.96L1284.81 1094.19L1289.62 1094.41L1294.44 1094.63L1299.25 1094.84L1304.06 1095.04L1308.87 1095.24L1313.68 1095.43L1318.5 1095.61L1323.31 1095.79L1328.12 1095.96L1332.93 1096.13L1337.74 1096.29L1342.56 1096.44L1347.37 1096.58L1352.18 1096.72L1356.99 1096.85L1361.8 1096.97L1366.62 1097.09L1371.43 1097.2L1376.24 1097.3L1381.05 1097.4L1385.86 1097.49L1390.68 1097.57L1395.49 1097.64L1400.3 1097.71L1405.11 1097.77L1409.92 1097.82L1414.74 1097.87L1419.55 1097.91L1424.36 1097.94L1429.17 1097.97L1433.98 1097.99L1438.8 1098L1443.61 1098L1448.42 1098L1453.23 1097.99L1458.05 1097.97L1462.86 1097.94L1467.67 1097.91L1472.48 1097.87L1477.29 1097.82L1482.11 1097.77L1486.92 1097.71L1491.73 1097.64L1496.54 1097.57L1501.35 1097.49L1506.17 1097.4L1510.98 1097.3L1515.79 1097.2L1520.6 1097.09L1525.41 1096.97L1530.23 1096.85L1535.04 1096.72L1539.85 1096.58L1544.66 1096.44L1549.47 1096.29L1554.29 1096.13L1559.1 1095.96L1563.91 1095.79L1568.72 1095.61L1573.53 1095.43L1578.35 1095.24L1583.16 1095.04L1587.97 1094.84L1592.78 1094.63L1597.59 1094.41L1602.41 1094.19L1607.22 1093.96L1612.03 1093.73L1616.84 1093.49L1621.65 1093.24L1626.47 1092.99L1631.28 1092.73L1636.09 1092.46L1640.9 1092.19L1645.71 1091.91L1650.53 1091.63L1655.34 1091.34L1660.15 1091.05L1664.96 1090.75L1669.77 1090.45L1674.59 1090.14L1679.4 1089.83L1684.21 1089.51L1689.02 1089.18L1693.83 1088.85L1920 1069.46V248H0V1069Z" fill="#F2F2F4"/>
</svg>
